HIERARCHY
ROOT Hips
{
    OFFSET 0.000000 0.000000 0.000000
    CHANNELS 6 Xposition Yposition Zposition Zrotation Xrotation Yrotation
    JOINT Spine
    {
        OFFSET -0.000000 14.517291 0.000000
        CHANNELS 3 Zrotation Xrotation Yrotation
        JOINT Spine1
        {
            OFFSET -0.000000 37.558300 0.000000
            CHANNELS 3 Zrotation Xrotation Yrotation
            JOINT Neck
            {
                OFFSET -0.000000 37.404057 3.400369
                CHANNELS 3 Zrotation Xrotation Yrotation
                JOINT Head
                {
                    OFFSET -0.000000 24.785618 -3.540803
                    CHANNELS 3 Zrotation Xrotation Yrotation
                    End Site
                    {
                        OFFSET -0.000000 35.408028 0.000000
                    }
                }
            }
            JOINT LeftShoulder
            {
                OFFSET 6.992933 33.973492 -0.192664
                CHANNELS 3 Zrotation Xrotation Yrotation
                JOINT LeftArm
                {
                    OFFSET 21.527611 0.000000 0.000000
                    CHANNELS 3 Zrotation Xrotation Yrotation
                    JOINT LeftForeArm
                    {
                        OFFSET 56.353916 0.000000 0.000000
                        CHANNELS 3 Zrotation Xrotation Yrotation
                        JOINT LeftHand
                        {
                            OFFSET 47.774071 0.000000 0.000000
                            CHANNELS 3 Zrotation Xrotation Yrotation
                            End Site
                            {
                                OFFSET 26.556021 0.000000 0.000000
                            }
                        }
                    }
                }
            }
            JOINT RightShoulder
            {
                OFFSET -7.065357 33.973492 -0.192664
                CHANNELS 3 Zrotation Xrotation Yrotation
                JOINT RightArm
                {
                    OFFSET -21.527611 0.000000 0.000000
                    CHANNELS 3 Zrotation Xrotation Yrotation
                    JOINT RightForeArm
                    {
                        OFFSET -56.353916 0.000000 0.000000
                        CHANNELS 3 Zrotation Xrotation Yrotation
                        JOINT RightHand
                        {
                            OFFSET -47.774071 0.000000 0.000000
                            CHANNELS 3 Zrotation Xrotation Yrotation
                            End Site
                            {
                                OFFSET -26.556021 0.000000 0.000000
                            }
                        }
                    }
                }
            }
        }
    }
    JOINT LeftUpLeg
    {
        OFFSET 17.704014 0.000000 0.000000
        CHANNELS 3 Zrotation Xrotation Yrotation
        JOINT LeftLeg
        {
            OFFSET -0.000000 -81.181816 0.000000
            CHANNELS 3 Zrotation Xrotation Yrotation
            JOINT LeftFoot
            {
                OFFSET -0.000000 -62.821102 0.000000
                CHANNELS 3 Zrotation Xrotation Yrotation
                JOINT LeftToeBase
                {
                    OFFSET -0.000000 -11.507608 26.556021
                    CHANNELS 3 Zrotation Xrotation Yrotation
                    End Site
                    {
                        OFFSET -0.000000 0.000000 7.081605
                    }
                }
            }
        }
    }
    JOINT RightUpLeg
    {
        OFFSET -17.704014 0.000000 0.000000
        CHANNELS 3 Zrotation Xrotation Yrotation
        JOINT RightLeg
        {
            OFFSET -0.000000 -81.181816 0.000000
            CHANNELS 3 Zrotation Xrotation Yrotation
            JOINT RightFoot
            {
                OFFSET -0.000000 -62.821102 0.000000
                CHANNELS 3 Zrotation Xrotation Yrotation
                JOINT RightToeBase
                {
                    OFFSET -0.000000 -11.507608 26.556021
                    CHANNELS 3 Zrotation Xrotation Yrotation
                    End Site
                    {
                        OFFSET -0.000000 0.000000 7.081605
                    }
                }
            }
        }
    }
}
MOTION
Frames:    4
Frame Time:    0.008333
23.031769    152.193634    -108.525421    -0.469396    -8.015026    35.129486    -2.086052    1.871714    -2.041098    -2.560582    -0.474451    -0.703301    6.841033    1.328289    -14.227731    10.683072    7.131895    -14.929093    7.089303    8.403721    -18.032740    -29.077820    23.380608    -51.707355    -0.374559    -14.658960    -99.111794    6.724382    -15.640306    -9.806352    -1.503887    -5.944827    -4.848566    33.506886    -22.065636    44.838352    -65.252647    -43.673130    20.765987    -4.377878    -34.045330    28.336060    16.607897    -2.193319    2.106123    -17.651640    43.939117    -14.698508    12.822680    -31.981411    48.026402    0.000000    0.000000    0.000000    -19.252153    -17.692677    -13.653655    13.326036    32.480076    -14.056704    6.497394    3.338607    -14.403298    0.000000    0.000000    0.000000    
23.064428    152.191788    -108.535553    -0.466478    -8.006963    35.095108    -2.085077    1.878122    -2.041464    -2.536657    -0.479558    -0.703469    6.830534    1.330577    -14.231913    10.646249    7.135584    -14.935072    7.083254    8.409626    -18.051003    -29.093468    23.372883    -51.735706    -0.354180    -14.627622    -99.069107    7.219237    -15.627572    -9.818589    -1.497102    -5.924680    -4.845592    33.497204    -21.968964    44.863907    -65.319588    -43.579536    20.620815    -4.414352    -34.012657    28.354712    16.589529    -2.177705    2.134367    -17.661226    43.931477    -14.665471    12.815729    -31.994717    48.015057    0.000000    0.000000    0.000000    -19.259804    -17.702103    -13.649764    13.302484    32.472519    -14.013519    6.510837    3.347287    -14.400673    0.000000    0.000000    0.000000    
23.097588    152.189774    -108.547638    -0.461410    -7.994792    35.059982    -2.184104    1.879472    -1.936493    -2.418443    -0.488664    -0.668754    6.960302    1.346747    -14.289169    10.489006    7.082967    -15.019094    7.161460    8.460980    -18.256834    -29.181292    23.319866    -51.787178    -0.363529    -14.650649    -99.035126    6.728136    -15.619549    -9.809283    -1.435170    -5.917281    -4.936606    33.322578    -21.856155    44.797398    -65.371826    -43.485825    20.389217    -4.427833    -34.028835    28.437838    16.564905    -2.169967    2.165704    -17.660343    43.940792    -14.668109    12.816618    -31.999142    48.024643    0.000000    0.000000    0.000000    -19.277319    -17.716383    -13.639108    13.301826    32.464516    -14.004563    6.507715    3.359943    -14.399127    0.000000    0.000000    0.000000    
23.131353    152.188095    -108.561958    -0.461773    -7.981642    35.025684    -2.172290    1.885693    -1.941330    -2.403978    -0.501003    -0.670524    6.911675    1.325509    -14.293275    10.500184    7.135230    -15.022011    7.147993    8.468101    -18.264032    -29.189274    23.329844    -51.819962    -0.350462    -14.646591    -99.037971    7.213756    -15.640161    -9.791695    -1.430317    -5.889332    -4.919049    33.305141    -21.778360    44.817032    -65.414940    -43.391285    20.261850    -4.429585    -33.984398    28.479645    16.546320    -2.168571    2.189328    -17.675459    43.946758    -14.622682    12.794791    -32.011295    47.997471    0.000000    0.000000    0.000000    -19.291395    -17.737383    -13.642274    13.283445    32.469788    -13.957623    6.508051    3.378545    -14.398412    0.000000    0.000000    0.000000    
